HIERARCHY
ROOT Hips
{
	OFFSET -0.001795 -0.223333 0.028219
	CHANNELS 6 Xposition Yposition Zposition Zrotation Yrotation Xrotation 
	JOINT LeftUpLeg
	{
		OFFSET 0.069520 -0.091406 -0.006815
		CHANNELS 3 Zrotation Yrotation Xrotation
		JOINT LeftLeg
		{
			OFFSET 0.034277 -0.375199 -0.004496
			CHANNELS 3 Zrotation Yrotation Xrotation
			JOINT LeftFoot
			{
				OFFSET -0.013596 -0.397961 -0.043693
				CHANNELS 3 Zrotation Yrotation Xrotation
				JOINT LeftToe
				{
					OFFSET 0.026358 -0.055791 0.119288
					CHANNELS 3 Zrotation Yrotation Xrotation
					End Site
					{
						OFFSET 0.000000 0.000000 0.000000
					}
				}
			}
		}
	}
	JOINT RightUpLeg
	{
		OFFSET -0.067670 -0.090522 -0.004320
		CHANNELS 3 Zrotation Yrotation Xrotation
		JOINT RightLeg
		{
			OFFSET -0.038290 -0.382569 -0.008850
			CHANNELS 3 Zrotation Yrotation Xrotation
			JOINT RightFoot
			{
				OFFSET 0.015774 -0.398415 -0.042312
				CHANNELS 3 Zrotation Yrotation Xrotation
				JOINT RightToe
				{
					OFFSET -0.025372 -0.048144 0.123348
					CHANNELS 3 Zrotation Yrotation Xrotation
					End Site
					{
						OFFSET 0.000000 0.000000 0.000000
					}
				}
			}
		}
	}
	JOINT Spine
	{
		OFFSET -0.002533 0.108963 -0.026696
		CHANNELS 3 Zrotation Yrotation Xrotation
		JOINT Spine1
		{
			OFFSET 0.005487 0.135180 0.001092
			CHANNELS 3 Zrotation Yrotation Xrotation
			JOINT Spine2
			{
				OFFSET 0.001457 0.052922 0.025425
				CHANNELS 3 Zrotation Yrotation Xrotation
				JOINT Neck
				{
					OFFSET -0.002778 0.213870 -0.042857
					CHANNELS 3 Zrotation Yrotation Xrotation
					JOINT Head
					{
						OFFSET 0.005152 0.064970 0.051349
						CHANNELS 3 Zrotation Yrotation Xrotation
						End Site
						{
							OFFSET 0.000000 0.000000 0.000000
						}
					}
				}
				JOINT LeftShoulder
				{
					OFFSET 0.078845 0.121749 -0.034090
					CHANNELS 3 Zrotation Yrotation Xrotation
					JOINT LeftArm
					{
						OFFSET 0.090977 0.030469 -0.008868
						CHANNELS 3 Zrotation Yrotation Xrotation
						JOINT LeftForeArm
						{
							OFFSET 0.259612 -0.012772 -0.027456
							CHANNELS 3 Zrotation Yrotation Xrotation
							JOINT LeftHand
							{
								OFFSET 0.249234 0.008986 -0.001171
								CHANNELS 3 Zrotation Yrotation Xrotation
								End Site
								{
									OFFSET 0.000000 0.000000 0.000000
								}
							}
						}
					}
				}
				JOINT RightShoulder
				{
					OFFSET -0.081759 0.118833 -0.038615
					CHANNELS 3 Zrotation Yrotation Xrotation
					JOINT RightArm
					{
						OFFSET -0.096012 0.032551 -0.009143
						CHANNELS 3 Zrotation Yrotation Xrotation
						JOINT RightForeArm
						{
							OFFSET -0.253742 -0.013329 -0.021401
							CHANNELS 3 Zrotation Yrotation Xrotation
							JOINT RightHand
							{
								OFFSET -0.255298 0.007772 -0.005559
								CHANNELS 3 Zrotation Yrotation Xrotation
								End Site
								{
									OFFSET 0.000000 0.000000 0.000000
								}
							}
						}
					}
				}
			}
		}
	}
}
MOTION
Frames: 12
Frame Time: 0.050000
-0.019361 0.944451 0.077921 2.148183 16.470416 -2.299434 2.791967 0.092133 4.467560 2.284778 -0.306205 1.841644 -6.809304 -9.891640 5.032729 0.000000 0.000000 0.000000 -10.507301 -0.380878 0.517302 3.198369 -0.870595 16.589246 -4.655351 -12.097948 5.006949 0.000000 0.000000 0.000000 -0.029811 0.175137 -9.365556 8.826301 -3.264815 -7.130569 -1.848419 -9.873880 -4.532685 5.052657 -6.572136 16.698524 0.000000 0.000000 0.000000 5.458453 4.082636 -0.623701 -56.514098 -11.007119 -0.654982 -31.642669 -36.987036 12.161450 0.000000 0.000000 0.000000 -26.282112 1.246318 2.951719 -42.939015 57.675133 -25.892744 -88.734100 -11.801040 13.140366 0.000000 0.000000 0.000000 
-0.021253 0.944511 0.073716 2.209760 15.126813 -2.054032 2.648616 0.093407 3.845744 1.966186 -0.303387 2.280671 -6.146691 -8.873028 4.798642 0.000000 0.000000 0.000000 -10.708105 -0.317412 -0.668197 3.598276 -0.959621 17.241014 -4.148402 -10.933302 4.148274 0.000000 0.000000 0.000000 0.118166 0.198318 -8.512943 8.705597 -3.219763 -7.178707 -1.540192 -9.300148 -3.594698 6.025714 -7.290606 15.146354 0.000000 0.000000 0.000000 5.527105 4.190977 -0.668803 -55.632085 -9.061738 -1.616724 -34.826922 -38.640470 14.025299 0.000000 0.000000 0.000000 -26.236604 1.229250 2.925571 -43.622012 57.915626 -26.551319 -90.779207 -11.205982 12.960933 0.000000 0.000000 0.000000 
-0.023855 0.944873 0.068566 1.670281 13.595493 -1.997634 2.932162 0.045039 2.854332 2.128165 -0.428452 3.867612 -4.997812 -7.601648 3.651494 0.000000 0.000000 0.000000 -10.121613 -0.211554 -2.165907 3.774993 -0.988123 18.217236 -3.847556 -10.248908 3.992530 0.000000 0.000000 0.000000 0.333859 0.214426 -7.452306 8.652351 -3.259676 -6.849516 -0.642918 -8.947297 -3.145211 6.948696 -8.075827 14.810791 0.000000 0.000000 0.000000 5.266008 3.992811 -0.696121 -54.706509 -6.610048 -2.651323 -35.638434 -40.297251 15.140267 0.000000 0.000000 0.000000 -24.434565 0.960903 2.859284 -44.414973 58.107275 -27.467802 -92.984913 -8.552828 10.667369 0.000000 0.000000 0.000000 
-0.026886 0.945276 0.062889 1.154790 12.195683 -1.593677 3.573895 -0.059024 1.147118 1.586081 -0.452921 5.310528 -4.491879 -6.997368 3.234091 0.000000 0.000000 0.000000 -9.603422 -0.105055 -3.644042 3.829458 -0.934332 18.278162 -3.459254 -9.376143 4.010923 0.000000 0.000000 0.000000 0.310264 0.199731 -6.300152 8.909627 -3.436138 -6.495174 -0.096879 -8.704327 -2.350951 8.086264 -8.867347 13.378204 0.000000 0.000000 0.000000 5.595489 3.684640 -0.621116 -53.612117 -4.138193 -3.661491 -36.293743 -41.678509 16.132151 0.000000 0.000000 0.000000 -23.976397 0.636154 2.873654 -43.237045 57.233413 -26.553679 -94.760569 -8.186983 10.406529 0.000000 0.000000 0.000000 
-0.029267 0.946184 0.056593 0.590774 10.664149 -1.199554 4.015683 -0.140940 -0.384920 1.566589 -0.576024 7.250193 -3.832514 -6.138777 2.691585 0.000000 0.000000 0.000000 -8.490311 0.039264 -4.915461 3.402559 -0.723478 18.153329 -3.194836 -8.779123 3.839120 0.000000 0.000000 0.000000 0.496637 0.189193 -5.271033 8.785448 -3.409035 -6.366397 0.773288 -8.857564 -1.182020 8.815906 -9.331080 12.565430 0.000000 0.000000 0.000000 5.250028 3.595344 -0.720897 -53.772873 -1.259112 -4.871743 -35.156975 -43.494246 16.659501 0.000000 0.000000 0.000000 -22.875480 0.059334 2.876167 -43.392380 56.948202 -27.024726 -98.504620 -6.983398 9.429320 0.000000 0.000000 0.000000 
-0.030297 0.947123 0.050239 0.560199 9.200640 -0.115139 4.214962 -0.266443 -2.801551 1.325592 -0.634260 8.830414 -3.532917 -5.547129 2.775884 0.000000 0.000000 0.000000 -8.260649 0.163327 -7.205396 3.123791 -0.571423 18.316826 -2.943614 -8.221973 3.788457 0.000000 0.000000 0.000000 0.295570 0.165413 -4.625010 8.621816 -3.379889 -6.081601 1.238324 -9.040322 0.392620 9.687086 -9.872606 11.256057 0.000000 0.000000 0.000000 5.430033 2.821857 -0.562941 -54.317528 0.988446 -5.871485 -35.480071 -44.868241 17.644173 0.000000 0.000000 0.000000 -22.930952 -0.809083 2.918003 -41.859196 56.193342 -26.193539 -101.617320 -7.798824 10.465237 0.000000 0.000000 0.000000 
-0.029641 0.948594 0.043914 0.343750 7.951214 0.735796 4.241229 -0.323562 -3.860543 0.903143 -0.558790 8.982540 -2.927262 -4.351404 2.797679 0.000000 0.000000 0.000000 -7.739452 0.278901 -8.441974 2.613123 -0.349643 17.662232 -2.473838 -7.288354 4.308407 0.000000 0.000000 0.000000 0.336460 0.132724 -3.540140 8.601614 -3.349421 -6.259469 2.263000 -9.730523 1.195528 10.228132 -10.106372 10.568640 0.000000 0.000000 0.000000 4.288812 2.449705 -0.626143 -55.693015 2.973693 -6.779783 -32.809250 -45.105983 16.831181 0.000000 0.000000 0.000000 -23.044628 -1.216089 3.196853 -41.051357 55.853353 -26.280315 -104.198881 -7.859336 10.451755 0.000000 0.000000 0.000000 
-0.027527 0.949764 0.038284 0.115292 6.152285 1.651018 4.240722 -0.392068 -5.149305 0.915371 -0.557905 9.222688 -3.026275 -3.859007 4.038911 0.000000 0.000000 0.000000 -7.258653 0.424418 -10.226997 1.776366 -0.032106 17.617542 -1.603177 -5.392903 4.340792 0.000000 0.000000 0.000000 0.179854 0.121952 -3.245078 9.112427 -3.719424 -5.180658 2.791892 -9.469005 1.551601 10.554387 -10.291576 10.439004 0.000000 0.000000 0.000000 3.689906 1.574499 -0.418373 -56.042088 4.896837 -7.614851 -33.229180 -46.114623 17.603911 0.000000 0.000000 0.000000 -22.593511 -1.030682 3.321568 -39.639965 54.689256 -25.116288 -104.077260 -8.282493 10.577704 0.000000 0.000000 0.000000 
-0.024395 0.950690 0.033721 0.165811 3.432444 2.500589 3.903359 -0.411938 -5.563316 0.334982 -0.381420 8.342437 -2.052561 -1.880121 4.415719 0.000000 0.000000 0.000000 -7.137261 0.553476 -11.438154 1.258773 0.219816 16.993200 -0.838594 -3.871613 4.557458 0.000000 0.000000 0.000000 0.500387 0.101576 -2.546546 8.847687 -3.623493 -5.023040 3.570285 -8.850026 2.554506 11.209128 -10.599100 9.171850 0.000000 0.000000 0.000000 3.155378 2.076944 -0.645103 -57.423378 6.089406 -8.277325 -35.136402 -47.957204 19.613387 0.000000 0.000000 0.000000 -23.123598 -1.868533 3.483455 -38.384094 53.625339 -24.270863 -102.398168 -10.873728 12.732591 0.000000 0.000000 0.000000 
-0.020832 0.951545 0.030124 0.475941 0.786363 2.819937 3.428789 -0.398309 -5.362853 0.067360 -0.271271 7.389987 -1.598295 -0.674221 5.418492 0.000000 0.000000 0.000000 -7.454708 0.637672 -12.527136 0.541780 0.515732 17.100223 0.189877 -1.788740 4.786983 0.000000 0.000000 0.000000 0.432672 0.082928 -2.062020 8.954931 -3.808141 -3.904301 3.713079 -7.857529 2.995476 11.386125 -10.899420 10.139945 0.000000 0.000000 0.000000 1.916450 1.509411 -0.499538 -57.681930 6.362801 -8.470020 -37.528210 -52.843181 23.400359 0.000000 0.000000 0.000000 -23.686867 -1.324756 3.707088 -34.509454 50.168357 -20.478704 -96.778208 -13.897414 14.091252 0.000000 0.000000 0.000000 
-0.017152 0.952526 0.026906 0.579160 -1.865433 3.329572 3.210331 -0.360867 -4.826651 -0.599111 -0.094854 6.058483 -0.427354 1.791147 6.508203 0.000000 0.000000 0.000000 -7.297687 0.775333 -13.678319 -0.550032 0.882873 16.889290 1.211722 0.054169 5.402449 0.000000 0.000000 0.000000 0.820046 0.051759 -1.399083 8.810067 -3.825941 -3.100341 3.834180 -7.413287 3.502299 11.390398 -10.689804 9.564728 0.000000 0.000000 0.000000 2.102258 2.711484 -0.934908 -58.940186 5.698147 -8.142884 -38.737426 -58.273641 27.310752 0.000000 0.000000 0.000000 -24.488468 -2.189430 3.936735 -31.576610 47.123392 -17.864862 -91.663231 -18.060880 16.106886 0.000000 0.000000 0.000000 
-0.014102 0.953155 0.023494 0.808546 -3.560864 3.254994 3.109989 -0.319967 -4.270671 -1.054689 0.014480 5.079548 0.590035 3.639576 6.789183 0.000000 0.000000 0.000000 -7.698767 0.794404 -13.780338 -0.596253 0.917186 16.320967 1.857122 1.045189 6.024139 0.000000 0.000000 0.000000 0.952354 -0.002857 -0.317658 8.663323 -3.830195 -2.390212 3.767379 -7.709755 4.239448 11.152319 -10.666762 11.356357 0.000000 0.000000 0.000000 1.108558 2.323297 -0.835962 -58.877767 3.059137 -6.821661 -41.350196 -68.080386 35.429193 0.000000 0.000000 0.000000 -24.437387 -2.980216 4.054755 -26.725809 43.210494 -14.271760 -86.421449 -18.937216 14.465346 0.000000 0.000000 0.000000 
